<svg width="11" height="10" viewBox="0 0 11 10" fill="none" xmlns="http://www.w3.org/2000/svg">
<path d="M10.7498 0.0400825C10.7017 -0.00210319 10.6333 -0.0118905 10.5753 0.0150166L0.0934577 4.88517C0.0370271 4.9114 0.000687976 4.9677 9.64647e-06 5.02991C-0.000668683 5.09212 0.0344753 5.1492 0.0903567 5.17662L3.05669 6.63238C3.11109 6.6591 3.17595 6.65306 3.22453 6.61675L6.10863 4.46115L3.84449 6.79008C3.81219 6.82332 3.79572 6.86883 3.79927 6.91502L4.0247 9.85086C4.02971 9.91592 4.07332 9.97154 4.1353 9.99192C4.15187 9.99735 4.1689 10 4.18572 10C4.23188 10 4.27678 9.9802 4.30802 9.94402L5.88245 8.11957L7.82878 9.04953C7.87103 9.06972 7.91993 9.07056 7.96286 9.05189C8.00579 9.03319 8.03848 8.99681 8.0525 8.95217L10.7974 0.209891C10.8166 0.148841 10.7979 0.0822681 10.7498 0.0400825Z" fill="#555B6E"/>
</svg>
