<svg width="313" height="313" viewBox="0 0 313 313" fill="none" xmlns="http://www.w3.org/2000/svg">
<path d="M206.969 151.453H287.719V136.312H277.625V106.031H272.578V80.7969H262.484V106.031H257.438V136.312H206.969V151.453Z" fill="black"/>
<path d="M171.641 10.1406H161.547V35.2741L171.641 33.2553V10.1406Z" fill="black"/>
<path d="M191.828 0.046875H181.734V31.2366L191.828 29.2178V0.046875Z" fill="black"/>
<path d="M212.016 10.1406H201.922V27.1991L212.016 25.1803V10.1406Z" fill="black"/>
<path d="M180.473 269.752C184.046 268.293 187.892 267.531 191.828 267.531V151.453H196.875V126.219H232.203V31.4382L141.359 49.607V258.714C144.599 257.887 147.981 257.437 151.453 257.437C162.531 257.437 172.963 261.99 180.473 269.752ZM196.875 65.6561H217.062V95.9373H196.875V65.6561ZM156.5 65.6561H176.688V95.9373H156.5V65.6561ZM156.5 116.125H176.688V146.406H156.5V116.125ZM156.5 166.594H176.688V196.875H156.5V166.594ZM156.5 217.062H176.688V247.344H156.5V217.062Z" fill="black"/>
<path d="M232.203 257.438C235.675 257.438 239.052 257.907 242.297 258.745V181.734H222.109V258.775C225.37 257.927 228.746 257.438 232.203 257.438Z" fill="black"/>
<path d="M267.173 277.625H267.531C269.242 277.625 270.913 277.812 272.578 278.024V181.734H252.391V262.833C258.472 266.345 263.6 271.412 267.173 277.625Z" fill="black"/>
<path d="M292.766 286.639V161.547H201.922V269.378C202.336 269.525 202.775 269.59 203.184 269.757C205.798 267.052 208.786 264.766 212.016 262.898V171.641H282.672V280.704C286.321 282.192 289.707 284.181 292.766 286.639Z" fill="black"/>
<path d="M293.694 302.859C288.456 293.825 278.725 287.719 267.531 287.719C265.285 287.719 263.1 287.981 260.99 288.446C257.044 276.313 245.658 267.531 232.203 267.531C220.782 267.531 210.845 273.86 205.687 283.197C202.068 279.765 197.208 277.625 191.828 277.625C186.448 277.625 181.588 279.765 177.969 283.197C172.812 273.86 162.874 267.531 151.453 267.531C137.847 267.531 126.345 276.505 122.524 288.849C120.501 288.173 118.376 287.719 116.125 287.719L113.526 287.9C110.064 281.763 103.483 277.625 95.9375 277.625C84.789 277.625 75.75 286.664 75.75 297.812C75.75 299.559 75.9872 301.244 76.401 302.859H66.1307C65.848 301.194 65.6562 299.513 65.6562 297.812C65.6562 281.112 79.2374 267.531 95.9375 267.531C104.013 267.531 111.648 270.771 117.25 276.303C120.768 270.67 125.608 266.078 131.266 262.823V80.7969H60.6094V134.193C64.1674 135.591 67.564 137.443 70.7031 139.785V131.266H80.7969V141.359H72.631C74.4933 142.914 76.285 144.584 77.9302 146.467C84.1985 146.795 90.1185 148.571 95.4732 151.453H100.984V154.991C113.132 164.055 121.172 179.428 121.172 196.875C121.172 218.799 108.504 237.447 90.8906 244.401V252.951L60.6094 288.274V302.859H50.5156V284.534L80.7969 249.211V236.791C97.8856 233.975 111.078 217.174 111.078 196.875C111.078 174.613 95.2259 156.5 75.75 156.5C74.8819 156.5 73.9937 156.556 73.0953 156.641C66.6152 147.345 56.6476 141.359 45.4688 141.359C25.9929 141.359 10.1406 159.473 10.1406 181.734C10.1406 202.033 23.3332 218.834 40.4219 221.65V176.688H50.5156V225.026C55.9259 231.386 63.0016 235.504 70.7031 236.786V245.476L50.5156 269.03V225.026C49.6829 224.047 48.8754 223.033 48.1234 221.953C47.2453 222.029 46.3671 222.109 45.4688 222.109C43.7528 222.109 42.0773 221.923 40.4219 221.65V228.226C36.1976 224.406 30.964 222.109 25.2812 222.109C11.367 222.109 0.046875 235.691 0.046875 252.391C0.046875 267.016 8.73255 279.245 20.2344 282.061V302.859H0.046875V312.953H312.953V302.859H293.694ZM80.7969 121.172H70.7031V111.078H80.7969V121.172ZM80.7969 100.984H70.7031V90.8906H80.7969V100.984ZM100.984 141.359H90.8906V131.266H100.984V141.359ZM100.984 121.172H90.8906V111.078H100.984V121.172ZM100.984 100.984H90.8906V90.8906H100.984V100.984ZM111.078 90.8906H121.172V100.984H111.078V90.8906ZM111.078 111.078H121.172V121.172H111.078V111.078ZM111.078 131.266H121.172V141.359H111.078V131.266ZM111.078 161.547V151.453H121.172V161.547H111.078ZM30.3281 282.061C34.0628 281.148 37.4846 279.215 40.4219 276.56V302.859H30.3281V282.061Z" fill="black"/>
</svg>
