<svg width="15" height="19" viewBox="0 0 15 19" fill="none" xmlns="http://www.w3.org/2000/svg">
<path d="M3.63664 5.52697C2.55978 5.1672 1.39775 5.0574 0.239756 5.22879L0.364322 5.56343L0.185059 5.81413C1.41357 7.89899 3.59711 9.25178 6.02624 9.41084L6.65052 9.45204L7.26635 9.58047V6.97179L3.63664 5.52697Z" fill="#97DA7B"/>
<path d="M6.04772 8.27029L4.8323 7.55338C4.82723 7.55039 4.82209 7.54758 4.81684 7.54492L0.239795 5.22876C0.219448 5.23179 0.166281 5.23919 0.166281 5.23919C0.0660021 5.25487 0 5.34129 0 5.43391C0 5.46491 0.00729308 5.49627 0.0229731 5.52617C0.0747537 5.62382 0.129306 5.71944 0.185061 5.8141L4.56198 8.029L5.76982 8.74142C5.81343 8.76716 5.86127 8.77941 5.90853 8.77938C6.00214 8.77938 6.09334 8.73128 6.14435 8.64478C6.22107 8.51468 6.17783 8.34701 6.04772 8.27029V8.27029Z" fill="#C1E9AF"/>
<path d="M7.76566 5.79468L5.75132 3.29827C5.11744 2.56186 4.34894 1.93531 3.47305 1.45776L3.28758 1.72454L2.92851 1.58616C2.56889 4.36419 3.65847 7.13554 5.81914 8.92413L6.52584 9.50903L7.95819 10.6993L7.76566 5.79468Z" fill="#ADE194"/>
<path d="M6.76449 8.84866C6.90112 8.78422 6.95965 8.62122 6.89518 8.48463L5.88279 6.33843C5.88207 6.33693 5.88141 6.33548 5.88064 6.33402L3.47325 1.45767C3.40538 1.42066 3.25548 1.34291 3.25548 1.34291C3.22339 1.32651 3.18947 1.31885 3.15629 1.31885C3.05164 1.31885 2.95464 1.3947 2.93896 1.50774C2.93531 1.53385 2.93207 1.55996 2.92871 1.58606L5.38913 6.57399L6.40045 8.718C6.44709 8.8169 6.54544 8.87488 6.64798 8.87488C6.68711 8.87488 6.72678 8.86645 6.76449 8.84866Z" fill="#C1E9AF"/>
<path d="M14.8339 5.59183L14.6793 5.36345L14.648 5.14958C13.5272 5.00127 12.4053 5.11537 11.3632 5.46354L7.18555 8.59335V9.54564L8.34937 9.38866L8.97365 9.34745C11.4429 9.18577 13.6587 7.79097 14.8753 5.64729L14.8339 5.59183Z" fill="#97DA7B"/>
<path d="M14.9997 5.37064C14.9997 5.27802 14.9337 5.19159 14.8334 5.17591L14.821 5.17409C14.7633 5.16505 14.7056 5.15728 14.6478 5.14966L9.91826 7.54225L8.00453 8.40374C7.86684 8.46573 7.80543 8.62767 7.86742 8.76537C7.91301 8.86667 8.01263 8.92665 8.11696 8.92665C8.15448 8.92665 8.19262 8.91888 8.22909 8.90247L10.1485 8.03843C10.1523 8.03675 10.156 8.03493 10.1597 8.03307L14.8751 5.64737C14.9097 5.5864 14.9438 5.52507 14.9768 5.46289C14.9924 5.43299 14.9997 5.40163 14.9997 5.37064V5.37064Z" fill="#C1E9AF"/>
<path d="M11.8019 1.59362L11.3792 1.66429L11.2576 1.45728C10.3813 1.93486 9.61248 2.56159 8.97839 3.29826L6.6875 8.01383L7.00909 10.0647L8.20387 9.50901L8.91057 8.92411C11.0693 7.13713 12.1589 4.36913 11.8019 1.59362V1.59362Z" fill="#ADE194"/>
<path d="M11.802 1.59363C11.7984 1.56504 11.7948 1.53645 11.7908 1.50786C11.7751 1.39482 11.6785 1.31897 11.5738 1.31897C11.5407 1.31897 11.4623 1.34924 11.4623 1.34924C11.3934 1.38428 11.3254 1.42045 11.2578 1.45732L8.81376 6.33272C8.81299 6.33425 8.81223 6.33578 8.8115 6.33735L7.96186 8.11517C7.89673 8.25144 7.95438 8.41473 8.09065 8.47986C8.12872 8.49806 8.16887 8.50666 8.2084 8.50666C8.31046 8.50666 8.40837 8.44927 8.4553 8.35103L9.30385 6.57554L11.802 1.59363Z" fill="#C1E9AF"/>
<path d="M7.63828 0.212646L7.3648 0.392821L7.09131 0.221799C6.07203 1.69448 5.54883 3.42162 5.54883 5.16262C5.54883 6.29158 5.76871 7.42638 6.21651 8.50101L6.59173 9.40133L7.14856 10.628H7.59307L8.10139 9.40133L8.49303 8.46199C9.62608 5.74289 9.30172 2.63729 7.63828 0.212646V0.212646Z" fill="#97DA7B"/>
<path d="M7.63829 0.212685C7.6148 0.178481 7.55879 0.0983666 7.55879 0.0983666C7.46617 -0.0321788 7.27291 -0.0329081 7.17919 0.096908C7.14943 0.138296 7.12026 0.180012 7.09131 0.221838V4.4386C7.09131 4.58964 7.21372 4.71209 7.3648 4.71209C7.51587 4.71209 7.63829 4.58964 7.63829 4.4386V0.212685Z" fill="#ADE194"/>
<path d="M7.34673 6.17239C7.19566 6.17239 7.07324 6.04994 7.07324 5.8989V5.59197C7.07324 5.44093 7.19566 5.31848 7.34673 5.31848C7.49781 5.31848 7.62022 5.44093 7.62022 5.59197V5.8989C7.62022 6.04994 7.49781 6.17239 7.34673 6.17239Z" fill="#ADE194"/>
<path d="M7.34673 9.7825C7.19566 9.7825 7.07324 9.66005 7.07324 9.50902V6.95696C7.07324 6.80592 7.19566 6.68347 7.34673 6.68347C7.49781 6.68347 7.62022 6.80592 7.62022 6.95696V9.50902C7.62022 9.66005 7.49781 9.7825 7.34673 9.7825Z" fill="#ADE194"/>
<path d="M12.3832 11.1779V16.8107C12.3832 17.4963 11.8275 18.052 11.1423 18.052H3.55097C2.86579 18.052 2.31006 17.4963 2.31006 16.8107V11.1779C2.31006 10.2561 3.05723 9.50891 3.97907 9.50891H10.7142C11.636 9.50891 12.3832 10.2561 12.3832 11.1779V11.1779Z" fill="#EFEDEF"/>
<path d="M4.43872 16.8107V11.1779C4.43872 10.2561 5.18589 9.50891 6.10773 9.50891H3.97907C3.05723 9.50891 2.31006 10.2561 2.31006 11.1779V16.8107C2.31006 17.4963 2.86579 18.052 3.55097 18.052H5.67963C4.99445 18.052 4.43872 17.4963 4.43872 16.8107V16.8107Z" fill="#E5E1E5"/>
<path d="M11.289 11.1779V16.8107C11.289 16.892 11.223 16.958 11.1421 16.958H3.55076C3.46981 16.958 3.40381 16.892 3.40381 16.8107V11.1779C3.40381 10.8616 3.66257 10.6029 3.97886 10.6029H4.1869C4.26391 10.6029 4.32638 10.5404 4.32638 10.4634V9.54538V9.50891H10.4029V9.54538V10.4634C10.4029 10.5404 10.4654 10.6029 10.5424 10.6029H10.714C11.0303 10.6029 11.289 10.8616 11.289 11.1779V11.1779Z" fill="#C68D7A"/>
<path d="M4.32638 10.4634C4.32638 10.5404 4.26395 10.6029 4.1869 10.6029H3.97886C3.6626 10.6029 3.40381 10.8616 3.40381 11.1779V16.8107C3.40381 16.892 3.46981 16.958 3.55076 16.958H4.44752C4.44179 16.9097 4.43851 16.8606 4.43851 16.8107V11.1779C4.43851 10.2561 5.18568 9.50891 6.10752 9.50891H4.32638V9.54538V10.4634Z" fill="#BC7C63"/>
<path d="M11.2892 14.4797V13.9327C11.2892 13.9327 11.2892 13.9327 11.2891 13.9327H6.65191C6.50083 13.9327 6.37842 14.0552 6.37842 14.2062C6.37842 14.3573 6.50083 14.4797 6.65191 14.4797H11.2892H11.2892Z" fill="#BC7C63"/>
<path d="M5.54858 14.4797H5.31206C5.16099 14.4797 5.03857 14.3573 5.03857 14.2062C5.03857 14.0552 5.16099 13.9327 5.31206 13.9327H5.54858C5.69965 13.9327 5.82207 14.0552 5.82207 14.2062C5.82207 14.3573 5.69962 14.4797 5.54858 14.4797Z" fill="#BC7C63"/>
<path d="M7.17301 12.5631H4.93999C4.78892 12.5631 4.6665 12.4406 4.6665 12.2896C4.6665 12.1386 4.78892 12.0161 4.93999 12.0161H7.17298C7.32405 12.0161 7.44647 12.1386 7.44647 12.2896C7.44647 12.4406 7.32405 12.5631 7.17301 12.5631Z" fill="#BC7C63"/>
<path d="M9.70359 12.5631H8.5313C8.38023 12.5631 8.25781 12.4406 8.25781 12.2896C8.25781 12.1386 8.38023 12.0161 8.5313 12.0161H9.70359C9.85466 12.0161 9.97707 12.1386 9.97707 12.2896C9.97707 12.4406 9.85466 12.5631 9.70359 12.5631Z" fill="#BC7C63"/>
<path d="M6.87527 11.1302H6.52593C6.37486 11.1302 6.25244 11.0078 6.25244 10.8567C6.25244 10.7057 6.37486 10.5833 6.52593 10.5833H6.87527C7.02634 10.5833 7.14876 10.7057 7.14876 10.8567C7.14876 11.0078 7.02631 11.1302 6.87527 11.1302Z" fill="#BC7C63"/>
</svg>
